<?xml version="1.0" encoding="UTF-8" standalone="no"?>
<!DOCTYPE svg PUBLIC "-//W3C//DTD SVG 1.1//EN" "http://www.w3.org/Graphics/SVG/1.1/DTD/svg11.dtd">
<svg width="100%" height="100%" viewBox="0 0 141 174" version="1.1" xmlns="http://www.w3.org/2000/svg" xmlns:xlink="http://www.w3.org/1999/xlink" xml:space="preserve" xmlns:serif="http://www.serif.com/" style="fill-rule:evenodd;clip-rule:evenodd;stroke-linecap:round;stroke-linejoin:round;stroke-miterlimit:1.5;">
    <g transform="matrix(1,0,0,1,-172.792,-123.76)">
        <g transform="matrix(1,0,0,1,1,-4)">
            <g transform="matrix(1,0,0,1,0,13)">
                <g>
                    <path d="M294.778,172.747C294.778,143.618 271.129,119.968 242,119.968C212.871,119.968 189.222,143.618 189.222,172.747L189.222,225.617C189.222,254.746 212.871,278.395 242,278.395C271.129,278.395 294.778,254.746 294.778,225.617L294.778,172.747ZM276.404,172.867C276.404,153.879 260.988,138.463 242,138.463C223.012,138.463 207.596,153.879 207.596,172.867L207.596,225.496C207.596,244.485 223.012,259.901 242,259.901C260.988,259.901 276.404,244.485 276.404,225.496L276.404,172.867Z" style="fill:rgb(216,206,213);stroke:rgb(129,128,128);stroke-width:10.42px;"/>
                </g>
            </g>
            <g transform="matrix(1,0,0,0.810345,0,38.3103)">
                <path d="M307,211.22C307,206.131 303.652,202 299.529,202L184.471,202C180.348,202 177,206.131 177,211.22L177,308.78C177,313.869 180.348,318 184.471,318L299.529,318C303.652,318 307,313.869 307,308.78L307,211.22Z" style="fill:url(#_Linear1);stroke:rgb(217,161,0);stroke-width:11.45px;"/>
            </g>
            <g transform="matrix(1.77367,0,0,1.77367,-188.755,-189.428)">
                <path d="M239.234,251.367C236.99,250.131 235.469,247.742 235.469,245C235.469,240.99 238.724,237.734 242.734,237.734C246.744,237.734 250,240.99 250,245C250,247.742 248.478,250.131 246.234,251.367L246.234,260.233C246.234,260.656 245.891,261 245.467,261L240.001,261C239.578,261 239.234,260.656 239.234,260.233L239.234,251.367Z" style="fill:rgb(51,69,0);"/>
            </g>
        </g>
    </g>
    <defs>
        <linearGradient id="_Linear1" x1="0" y1="0" x2="1" y2="0" gradientUnits="userSpaceOnUse" gradientTransform="matrix(135,110.318,-64.6397,120.462,172,202)"><stop offset="0" style="stop-color:rgb(242,238,130);stop-opacity:1"/><stop offset="1" style="stop-color:rgb(255,240,83);stop-opacity:1"/></linearGradient>
    </defs>
</svg>
