<?xml version="1.0" encoding="UTF-8"?>
<svg width="443px" height="481px" viewBox="0 0 443 481" version="1.1" xmlns="http://www.w3.org/2000/svg" xmlns:xlink="http://www.w3.org/1999/xlink">
    <title>Group 4</title>
    <defs>
        <filter x="-12.1%" y="-9.2%" width="124.1%" height="118.4%" filterUnits="objectBoundingBox" id="filter-1">
            <feOffset dx="0" dy="10" in="SourceAlpha" result="shadowOffsetOuter1"></feOffset>
            <feGaussianBlur stdDeviation="5" in="shadowOffsetOuter1" result="shadowBlurOuter1"></feGaussianBlur>
            <feColorMatrix values="0 0 0 0 0   0 0 0 0 0   0 0 0 0 0  0 0 0 0.3 0" type="matrix" in="shadowBlurOuter1" result="shadowMatrixOuter1"></feColorMatrix>
            <feMerge>
                <feMergeNode in="shadowMatrixOuter1"></feMergeNode>
                <feMergeNode in="SourceGraphic"></feMergeNode>
            </feMerge>
        </filter>
        <linearGradient x1="73.406429%" y1="12.7373847%" x2="38.3710667%" y2="93.1702541%" id="linearGradient-2">
            <stop stop-color="#F2F2F2" offset="0%"></stop>
            <stop stop-color="#FFFFFF" offset="100%"></stop>
        </linearGradient>
        <linearGradient x1="50%" y1="0%" x2="50%" y2="100%" id="linearGradient-3">
            <stop stop-color="#FFFFFF" stop-opacity="0" offset="0%"></stop>
            <stop stop-color="#F2F2F2" offset="100%"></stop>
        </linearGradient>
        <path d="M11,0 L197.459058,0 C200.356741,-2.42404861e-14 203.137388,1.14337055 205.196923,3.18172323 L320.208453,117.010342 C322.295997,119.076415 323.470588,121.891529 323.470588,124.828619 L323.470588,412 C323.470588,418.075132 318.54572,423 312.470588,423 L11,423 C4.92486775,423 7.43989126e-16,418.075132 0,412 L0,11 C1.03236771e-15,4.92486775 4.92486775,2.89234053e-15 11,0 Z" id="path-4"></path>
        <linearGradient x1="73.3411863%" y1="38.5564783%" x2="9.66525119%" y2="86.3651653%" id="linearGradient-6">
            <stop stop-color="#E7E7E7" offset="0%"></stop>
            <stop stop-color="#FEFEFE" offset="100%"></stop>
        </linearGradient>
        <linearGradient x1="38.9987675%" y1="57.4370152%" x2="19.808681%" y2="92.4131264%" id="linearGradient-7">
            <stop stop-color="#FFFFFF" stop-opacity="0" offset="0%"></stop>
            <stop stop-color="#D8D8D8" offset="100%"></stop>
        </linearGradient>
        <path d="M201.982135,1.42108547e-14 L201.982135,102.033906 C201.982135,111.975032 210.04101,120.033906 219.982135,120.033906 L323.470588,120.033906 L323.470588,120.033906 L201.982135,1.42108547e-14 Z" id="path-8"></path>
        <filter x="-55.6%" y="-35.4%" width="186.4%" height="187.5%" filterUnits="objectBoundingBox" id="filter-9">
            <feOffset dx="-15" dy="10" in="SourceAlpha" result="shadowOffsetOuter1"></feOffset>
            <feGaussianBlur stdDeviation="15" in="shadowOffsetOuter1" result="shadowBlurOuter1"></feGaussianBlur>
            <feComposite in="shadowBlurOuter1" in2="SourceAlpha" operator="out" result="shadowBlurOuter1"></feComposite>
            <feColorMatrix values="0 0 0 0 0   0 0 0 0 0   0 0 0 0 0  0 0 0 0.386937281 0" type="matrix" in="shadowBlurOuter1"></feColorMatrix>
        </filter>
        <rect id="path-10" x="0" y="195.665385" width="278" height="157.669231" rx="15"></rect>
        <filter x="-8.1%" y="-12.4%" width="116.2%" height="128.5%" filterUnits="objectBoundingBox" id="filter-11">
            <feOffset dx="0" dy="3" in="SourceAlpha" result="shadowOffsetOuter1"></feOffset>
            <feGaussianBlur stdDeviation="7" in="shadowOffsetOuter1" result="shadowBlurOuter1"></feGaussianBlur>
            <feComposite in="shadowBlurOuter1" in2="SourceAlpha" operator="out" result="shadowBlurOuter1"></feComposite>
            <feColorMatrix values="0 0 0 0 0   0 0 0 0 0   0 0 0 0 0  0 0 0 0.327114292 0" type="matrix" in="shadowBlurOuter1"></feColorMatrix>
        </filter>
    </defs>
    <g id="Objs" stroke="none" stroke-width="1" fill="none" fill-rule="evenodd">
        <g id="Group-4" transform="translate(14.235294, 29.000000)">
            <g id="MIME-Copy" filter="url(#filter-1)" transform="translate(75.764706, 0.000000)">
                <mask id="mask-5" fill="white">
                    <use xlink:href="#path-4"></use>
                </mask>
                <path stroke="url(#linearGradient-3)" stroke-width="3" d="M197.459058,1.5 C199.961603,1.5 202.36307,2.48745638 204.141759,4.24785188 L204.141759,4.24785188 L319.153289,118.07647 C320.956168,119.860806 321.970588,122.292041 321.970588,124.828619 L321.970588,124.828619 L321.970588,412 C321.970588,414.623353 320.907265,416.998353 319.188103,418.717514 C317.468941,420.436676 315.093941,421.5 312.470588,421.5 L312.470588,421.5 L11,421.5 C8.37664744,421.5 6.00164744,420.436676 4.28248558,418.717514 C2.56332372,416.998353 1.5,414.623353 1.5,412 L1.5,412 L1.5,11 C1.5,8.37664744 2.56332372,6.00164744 4.28248558,4.28248558 C6.00164744,2.56332372 8.37664744,1.5 11,1.5 L11,1.5 L197.459058,1.5 Z"></path>
                <g id="Path" mask="url(#mask-5)">
                    <use fill="black" fill-opacity="1" filter="url(#filter-9)" xlink:href="#path-8"></use>
                    <path stroke="url(#linearGradient-7)" stroke-width="2" d="M202.982135,2.39380035 L321.035662,119.033906 L219.982135,119.033906 C215.287715,119.033906 211.037715,117.131116 207.96132,114.054721 C204.884925,110.978327 202.982135,106.728327 202.982135,102.033906 L202.982135,102.033906 L202.982135,2.39380035 Z" stroke-linejoin="square" fill="url(#linearGradient-6)" fill-rule="evenodd"></path>
                </g>
            </g>
            <g id="Rectangle-Copy-2">
                <use fill="black" fill-opacity="1" filter="url(#filter-11)" xlink:href="#path-10"></use>
                <use fill-opacity="0.626720935" fill="#F70600" fill-rule="evenodd" xlink:href="#path-10"></use>
            </g>
            <text id="PDF" font-family="SFProDisplay-Semibold, SF Pro Display" font-size="96" font-weight="500" fill="#ECECEC">
                <tspan x="50" y="309">PDF</tspan>
            </text>
        </g>
    </g>
</svg>