<?xml version="1.0" encoding="UTF-8"?>
<svg width="120px" height="120px" viewBox="0 0 120 120" version="1.1" xmlns="http://www.w3.org/2000/svg" xmlns:xlink="http://www.w3.org/1999/xlink">
    <title>Combined Shape</title>
    <g id="Page-1" stroke="none" stroke-width="1" fill="none" fill-rule="evenodd">
        <path d="M60,100 C62.7614237,100 65,102.238576 65,105 L65,115 C65,117.761424 62.7614237,120 60,120 C57.2385763,120 55,117.761424 55,115 L55,105 C55,102.238576 57.2385763,100 60,100 Z M95.3553391,88.2842712 L102.426407,95.3553391 C104.379028,97.3079605 104.379028,100.473785 102.426407,102.426407 C100.473785,104.379028 97.3079605,104.379028 95.3553391,102.426407 L88.2842712,95.3553391 C86.3316498,93.4027176 86.3316498,90.2368927 88.2842712,88.2842712 C90.2368927,86.3316498 93.4027176,86.3316498 95.3553391,88.2842712 Z M31.7157288,88.2842712 C33.6683502,90.2368927 33.6683502,93.4027176 31.7157288,95.3553391 L24.6446609,102.426407 C22.6920395,104.379028 19.5262146,104.379028 17.5735931,102.426407 C15.6209717,100.473785 15.6209717,97.3079605 17.5735931,95.3553391 L24.6446609,88.2842712 C26.5972824,86.3316498 29.7631073,86.3316498 31.7157288,88.2842712 Z M60,30 C76.5685425,30 90,43.4314575 90,60 C90,76.5685425 76.5685425,90 60,90 C43.4314575,90 30,76.5685425 30,60 C30,43.4314575 43.4314575,30 60,30 Z M15,55 C17.7614237,55 20,57.2385763 20,60 C20,62.7614237 17.7614237,65 15,65 L5,65 C2.23857625,65 -1.06694612e-12,62.7614237 -1.0672843e-12,60 C-1.06762248e-12,57.2385763 2.23857625,55 5,55 L15,55 Z M115,55 C117.761424,55 120,57.2385763 120,60 C120,62.7614237 117.761424,65 115,65 L105,65 C102.238576,65 100,62.7614237 100,60 C100,57.2385763 102.238576,55 105,55 L115,55 Z M24.6446609,17.5735931 L31.7157288,24.6446609 C33.6683502,26.5972824 33.6683502,29.7631073 31.7157288,31.7157288 C29.7631073,33.6683502 26.5972824,33.6683502 24.6446609,31.7157288 L17.5735931,24.6446609 C15.6209717,22.6920395 15.6209717,19.5262146 17.5735931,17.5735931 C19.5262146,15.6209717 22.6920395,15.6209717 24.6446609,17.5735931 Z M102.426407,17.5735931 C104.379028,19.5262146 104.379028,22.6920395 102.426407,24.6446609 L95.3553391,31.7157288 C93.4027176,33.6683502 90.2368927,33.6683502 88.2842712,31.7157288 C86.3316498,29.7631073 86.3316498,26.5972824 88.2842712,24.6446609 L95.3553391,17.5735931 C97.3079605,15.6209717 100.473785,15.6209717 102.426407,17.5735931 Z M60,0 C62.7614237,-5.07265313e-16 65,2.23857625 65,5 L65,15 C65,17.7614237 62.7614237,20 60,20 C57.2385763,20 55,17.7614237 55,15 L55,5 C55,2.23857625 57.2385763,5.07265313e-16 60,0 Z" id="Combined-Shape" fill="#FFFFFF"></path>
    </g>
</svg>